<?xml version="1.0" standalone="no"?>
<!DOCTYPE svg PUBLIC "-//W3C//DTD SVG 20010904//EN"
 "http://www.w3.org/TR/2001/REC-SVG-20010904/DTD/svg10.dtd">
<svg version="1.0" xmlns="http://www.w3.org/2000/svg"
 width="894.000000pt" height="894.000000pt" viewBox="0 0 894.000000 894.000000"
 preserveAspectRatio="xMidYMid meet">

<g transform="translate(0.000000,894.000000) scale(0.100000,-0.100000)"
fill="#5656FE" stroke="none">
<path d="M2790 8307 l0 -104 173 -11 c139 -9 192 -17 280 -41 180 -52 351
-151 452 -263 102 -114 203 -352 212 -500 l6 -86 -69 -7 c-505 -49 -819 -94
-1049 -151 -782 -195 -1490 -671 -1886 -1268 -158 -238 -296 -585 -366 -918
-24 -114 -26 -147 -30 -439 -4 -279 -3 -317 11 -328 9 -8 16 -25 16 -39 0 -27
40 -261 65 -383 58 -282 264 -682 502 -979 454 -566 1183 -977 1968 -1110 127
-22 468 -54 698 -65 l137 -7 0 -48 c0 -57 -19 -146 -53 -246 -75 -219 -229
-390 -440 -489 -142 -67 -277 -95 -529 -111 l-98 -6 0 -104 0 -104 1685 0
1685 0 0 110 0 110 -132 0 c-161 0 -271 21 -416 78 -248 97 -405 240 -491 446
-29 69 -69 224 -86 332 l-6 41 258 6 c395 8 641 45 993 149 581 172 1092 482
1454 884 320 354 537 764 644 1214 138 579 66 1195 -202 1745 -132 269 -277
475 -491 694 -431 443 -1017 751 -1683 886 -210 43 -458 72 -800 95 -79 6
-147 12 -151 14 -10 7 6 161 25 231 20 74 90 226 135 292 79 116 230 226 398
289 102 39 252 68 429 85 l122 12 0 98 0 99 -1685 0 -1685 0 0 -103z m1120
-3853 l0 -2517 -142 6 c-359 13 -816 163 -1129 370 -415 275 -693 735 -792
1312 -46 264 -55 363 -64 702 -19 737 124 1416 383 1815 60 91 280 312 392
393 289 209 566 328 892 384 68 11 77 12 225 30 138 17 147 18 193 20 l42 1 0
-2516z m1425 2490 c291 -38 538 -107 760 -214 161 -78 404 -255 516 -377 341
-371 515 -839 560 -1503 20 -295 5 -601 -52 -1108 -32 -281 -114 -561 -239
-817 -178 -362 -459 -602 -946 -810 -189 -81 -554 -162 -771 -172 l-123 -6 0
2518 0 2518 88 -7 c48 -4 141 -13 207 -22z"/>
</g>
</svg>
